<svg xmlns="http://www.w3.org/2000/svg" viewBox="0 0 1600 520" role="img" aria-labelledby="title desc">
  <title id="title">Retra Portal and Save Core wordmark</title>
  <desc id="desc">The Retra Portal and Save Core mark beside the Retra name and relive the games that made you tagline.</desc>
  <rect width="1600" height="520" rx="80" fill="#050A0D"/>
  <g transform="translate(76 62) scale(.39)">
    <path d="M760 320V620C760 762 660 840 500 840H370C230 840 150 740 150 590V350C150 218 250 140 390 140H580"
          fill="none" stroke="#FFFFFF" stroke-width="150" stroke-linecap="round" stroke-linejoin="round"/>
    <rect x="290" y="375" width="365" height="315" rx="78" fill="#FFFFFF"/>
    <rect x="365" y="505" width="58" height="64" rx="18" fill="#050A0D"/>
    <rect x="515" y="505" width="58" height="64" rx="18" fill="#050A0D"/>
    <rect x="610" y="215" width="106" height="106" rx="18" fill="#FFFFFF"/>
    <rect x="705" y="120" width="106" height="106" rx="18" fill="#FFFFFF"/>
    <rect x="800" y="25" width="106" height="106" rx="18" fill="#FF806F"/>
  </g>
  <text x="565" y="286" fill="#F5FAFC" font-size="218" font-family="sans-serif" font-weight="700" letter-spacing="-8">Retra</text>
  <text x="578" y="372" fill="#B7C8D1" font-size="42" font-family="sans-serif" font-weight="500" letter-spacing="3">RELIVE THE GAMES THAT MADE YOU</text>
</svg>
