<svg xmlns="http://www.w3.org/2000/svg" viewBox="0 0 1600 520">
  <defs>
    <linearGradient id="g" x1="0" y1="0" x2="1" y2="1">
      <stop offset="0" stop-color="#7567ff"/><stop offset="0.55" stop-color="#b38bff"/><stop offset="1" stop-color="#45d9ff"/>
    </linearGradient>
  </defs>
  <rect width="1600" height="520" rx="80" fill="#07080d"/>
  <g transform="translate(80,40)">
    <rect width="440" height="440" rx="120" fill="#101424"/>
    <path d="M95 88h142c78 0 126 40 126 101 0 43-23 75-67 91l79 91H274l-72-84h-25v84H95V88zm82 68v68h56c31 0 48-12 48-34s-17-34-48-34h-56z" fill="url(#g)" fill-rule="evenodd"/>
    <path d="M300 68l66 12-43 50z" fill="#45d9ff"/>
    <circle cx="362" cy="140" r="12" fill="#ffc766"/>
  </g>
  <text x="600" y="285" fill="#f5f6ff" font-size="220" font-family="Manrope, Inter, Arial, sans-serif" font-weight="750" letter-spacing="-8">Retra</text>
  <text x="610" y="370" fill="#9da4c8" font-size="44" font-family="Inter, Arial, sans-serif" letter-spacing="2">RELIVE THE GAMES THAT MADE YOU</text>
</svg>
